<?xml version="1.0" encoding="utf-8"?>
<!-- Generator: Adobe Illustrator 28.1.0, SVG Export Plug-In . SVG Version: 6.00 Build 0)  -->
<svg version="1.1" id="图层_1" xmlns="http://www.w3.org/2000/svg" xmlns:xlink="http://www.w3.org/1999/xlink" x="0px" y="0px"
	 viewBox="0 0 40.6 80.2" style="enable-background:new 0 0 40.6 80.2;" xml:space="preserve">
<style type="text/css">
	.st0{fill:#FFFFFF;}
</style>
<g>
	<path class="st0" d="M1.9,40.1c0-8.8,0-17.7,0-26.5c0-0.1,0-0.3,0-0.4c0-0.3,0.1-0.4,0.4-0.4c0.5,0,1,0,1.4,0c2.9,0,5.8,0,8.8,0
		c0.6,0,0.6,0,0.6,0.6c0,0.1,0,0.2,0,0.3c0,0.2-0.1,0.4-0.4,0.3c-0.4,0-0.7,0-1.1,0c-2.6,0-5.3,0-7.9,0c-0.6,0-0.6,0-0.6,0.6
		c0,17,0,34,0,51c0,0.6,0,0.6,0.6,0.6c2.9,0,5.8,0,8.7,0c0.6,0,0.6,0,0.6,0.6c0,0.1,0,0.1,0,0.2c0,0.4,0,0.5-0.5,0.5
		c-1.8,0-3.6,0-5.4,0c-1.6,0-3.2,0-4.7,0c-0.6,0-0.6,0-0.6-0.6C1.9,58,1.9,49,1.9,40.1z"/>
	<path class="st0" d="M16.5,40.1c0,8.9,0,17.8,0,26.6c0,0.1,0,0.3,0,0.4c0,0.2-0.1,0.3-0.3,0.3c0,0,0,0,0,0
		c-0.9,0.1-0.9,0.1-0.9-0.9c0-17.7,0-35.4,0-53.1c0-0.9,0.2-1,1-0.8c0.2,0,0.2,0.1,0.3,0.3c0,0.2,0,0.3,0,0.5
		C16.5,22.3,16.5,31.2,16.5,40.1z"/>
	<path class="st0" d="M29.8,40.2c0,8.9,0,17.8,0,26.7c0,0.2,0.1,0.5-0.1,0.6c-0.3,0.1-0.7,0.1-1,0c-0.1,0-0.1-0.1-0.1-0.2
		c0-0.1,0-0.3,0-0.4c0-17.8,0-35.5,0-53.3c0-0.8,0-0.8,0.7-0.8c0.5,0,0.5,0,0.5,0.6C29.8,22.2,29.8,31.2,29.8,40.2z"/>
	<path class="st0" d="M21.9,40.1c0-8.9,0-17.7,0-26.6c0-0.1,0-0.3,0-0.4c0-0.1,0-0.1,0-0.2c0.2-0.4,0.6-0.1,0.9-0.2
		c0.2,0,0.3,0.1,0.3,0.3c0,0.1,0,0.2,0,0.4c0,17.8,0,35.6,0,53.4c0,0.1,0,0.2,0,0.4c0,0.2-0.1,0.3-0.3,0.3c-0.9,0.1-0.9,0.1-0.9-0.9
		C21.9,57.8,21.9,49,21.9,40.1z"/>
	<path class="st0" d="M38.7,51.2c0,5.2,0,10.5,0,15.7c0,0.2,0.1,0.5-0.2,0.5c-0.3,0.1-0.7,0.1-1,0c-0.1,0-0.1-0.2-0.1-0.3
		c0-0.1,0-0.3,0-0.4c0-10.4,0-20.8,0-31.2c0-0.1,0-0.2,0-0.4c0-0.3,0.1-0.4,0.4-0.4c0.9,0,0.9-0.1,0.9,0.9
		C38.7,40.9,38.7,46.1,38.7,51.2z"/>
	<path class="st0" d="M38.1,14.1c-0.6,0-0.6,0-0.6-0.7c0-0.6,0-0.6,0.7-0.6c0.7,0,0.7,0,0.7,0.7C38.7,14.1,38.7,14.1,38.1,14.1z"/>
</g>
</svg>
